<mxfile host="app.diagrams.net" agent="Mozilla/5.0 (Macintosh; Intel Mac OS X 10_15_7) AppleWebKit/605.1.15 (KHTML, like Gecko) Version/18.5 Safari/605.1.15" version="27.0.9">
  <diagram name="Page-1" id="DQU-6TTzWp3uHl4yWCbL">
    <mxGraphModel dx="1018" dy="697" grid="1" gridSize="10" guides="1" tooltips="1" connect="1" arrows="1" fold="1" page="1" pageScale="1" pageWidth="827" pageHeight="1169" math="0" shadow="0">
      <root>
        <mxCell id="0" />
        <mxCell id="1" parent="0" />
        <mxCell id="kt5JHNKNtY_vNhsqWSHy-22" value="Professor&lt;div&gt;&lt;br&gt;&lt;/div&gt;" style="shape=umlActor;verticalLabelPosition=bottom;verticalAlign=top;html=1;" parent="1" vertex="1">
          <mxGeometry x="159" y="365" width="50" height="100" as="geometry" />
        </mxCell>
        <mxCell id="kt5JHNKNtY_vNhsqWSHy-25" value="View All Students" style="ellipse;whiteSpace=wrap;html=1;" parent="1" vertex="1">
          <mxGeometry x="329" y="185" width="100" height="60" as="geometry" />
        </mxCell>
        <mxCell id="kt5JHNKNtY_vNhsqWSHy-26" value="Select Specific Student" style="ellipse;whiteSpace=wrap;html=1;" parent="1" vertex="1">
          <mxGeometry x="329" y="285" width="100" height="60" as="geometry" />
        </mxCell>
        <mxCell id="kt5JHNKNtY_vNhsqWSHy-27" value="View Student&#39;s Grades" style="ellipse;whiteSpace=wrap;html=1;" parent="1" vertex="1">
          <mxGeometry x="329" y="415" width="100" height="60" as="geometry" />
        </mxCell>
        <mxCell id="kt5JHNKNtY_vNhsqWSHy-30" value="" style="endArrow=none;html=1;rounded=0;exitX=0.5;exitY=0.5;exitDx=0;exitDy=0;exitPerimeter=0;entryX=0;entryY=0.5;entryDx=0;entryDy=0;" parent="1" source="kt5JHNKNtY_vNhsqWSHy-22" target="kt5JHNKNtY_vNhsqWSHy-25" edge="1">
          <mxGeometry width="50" height="50" relative="1" as="geometry">
            <mxPoint x="239" y="265" as="sourcePoint" />
            <mxPoint x="289" y="215" as="targetPoint" />
          </mxGeometry>
        </mxCell>
        <mxCell id="kt5JHNKNtY_vNhsqWSHy-31" value="" style="endArrow=none;html=1;rounded=0;exitX=0.5;exitY=0.5;exitDx=0;exitDy=0;exitPerimeter=0;entryX=0;entryY=0.5;entryDx=0;entryDy=0;" parent="1" source="kt5JHNKNtY_vNhsqWSHy-22" target="kt5JHNKNtY_vNhsqWSHy-26" edge="1">
          <mxGeometry width="50" height="50" relative="1" as="geometry">
            <mxPoint x="194" y="265" as="sourcePoint" />
            <mxPoint x="339" y="245" as="targetPoint" />
          </mxGeometry>
        </mxCell>
        <mxCell id="kt5JHNKNtY_vNhsqWSHy-32" value="" style="endArrow=none;html=1;rounded=0;exitX=0.5;exitY=0.5;exitDx=0;exitDy=0;exitPerimeter=0;entryX=0;entryY=0.5;entryDx=0;entryDy=0;" parent="1" source="kt5JHNKNtY_vNhsqWSHy-22" target="kt5JHNKNtY_vNhsqWSHy-27" edge="1">
          <mxGeometry width="50" height="50" relative="1" as="geometry">
            <mxPoint x="229" y="365" as="sourcePoint" />
            <mxPoint x="374" y="425" as="targetPoint" />
          </mxGeometry>
        </mxCell>
        <mxCell id="kt5JHNKNtY_vNhsqWSHy-35" value="Create Reference Letter" style="ellipse;whiteSpace=wrap;html=1;" parent="1" vertex="1">
          <mxGeometry x="329" y="525" width="100" height="60" as="geometry" />
        </mxCell>
        <mxCell id="kt5JHNKNtY_vNhsqWSHy-36" value="" style="endArrow=none;html=1;rounded=0;exitX=0.5;exitY=0.5;exitDx=0;exitDy=0;exitPerimeter=0;entryX=-0.01;entryY=0.333;entryDx=0;entryDy=0;entryPerimeter=0;" parent="1" source="kt5JHNKNtY_vNhsqWSHy-22" target="kt5JHNKNtY_vNhsqWSHy-35" edge="1">
          <mxGeometry width="50" height="50" relative="1" as="geometry">
            <mxPoint x="279" y="485" as="sourcePoint" />
            <mxPoint x="424" y="485" as="targetPoint" />
          </mxGeometry>
        </mxCell>
        <mxCell id="kt5JHNKNtY_vNhsqWSHy-37" value="Select Reference Letter Template" style="ellipse;whiteSpace=wrap;html=1;" parent="1" vertex="1">
          <mxGeometry x="569" y="525" width="100" height="60" as="geometry" />
        </mxCell>
        <mxCell id="kt5JHNKNtY_vNhsqWSHy-39" value="Include" style="endArrow=open;endSize=12;dashed=1;html=1;rounded=0;" parent="1" edge="1">
          <mxGeometry width="160" relative="1" as="geometry">
            <mxPoint x="429" y="554.5" as="sourcePoint" />
            <mxPoint x="569" y="554.5" as="targetPoint" />
          </mxGeometry>
        </mxCell>
        <mxCell id="kt5JHNKNtY_vNhsqWSHy-40" value="Extend" style="endArrow=open;endSize=12;dashed=1;html=1;rounded=0;entryX=0.5;entryY=0;entryDx=0;entryDy=0;" parent="1" target="kt5JHNKNtY_vNhsqWSHy-27" edge="1">
          <mxGeometry width="160" relative="1" as="geometry">
            <mxPoint x="379" y="345" as="sourcePoint" />
            <mxPoint x="539" y="345" as="targetPoint" />
          </mxGeometry>
        </mxCell>
      </root>
    </mxGraphModel>
  </diagram>
</mxfile>
